<?xml version="1.0" standalone="no"?>
<!DOCTYPE svg PUBLIC "-//W3C//DTD SVG 20010904//EN"
 "http://www.w3.org/TR/2001/REC-SVG-20010904/DTD/svg10.dtd">
<svg version="1.0" xmlns="http://www.w3.org/2000/svg"
 width="500.000000pt" height="500.000000pt" viewBox="0 0 500.000000 500.000000"
 preserveAspectRatio="xMidYMid meet">
<metadata>
Created by potrace 1.14, written by Peter Selinger 2001-2017
</metadata>
<g transform="translate(0.000000,500.000000) scale(0.100000,-0.100000)"
fill="#000000" stroke="none">
<path d="M1269 3244 c-29 -9 -63 -30 -93 -60 -86 -83 -129 -162 -384 -695
l-50 -106 -67 1 c-76 2 -85 -1 -82 -32 1 -21 5 -23 55 -19 29 1 55 0 58 -4 12
-20 -134 -236 -202 -298 -76 -70 -134 -95 -219 -95 -111 -1 -164 39 -173 132
-6 66 11 112 58 161 56 58 132 94 225 107 22 4 42 8 44 10 11 10 -33 55 -62
62 -141 38 -301 -109 -315 -289 -11 -155 64 -234 223 -234 68 0 89 4 138 28
32 16 85 54 118 84 59 55 158 193 205 285 24 47 25 48 72 49 148 3 267 -1 265
-8 -1 -4 -5 -33 -9 -63 -4 -30 -9 -64 -11 -75 -7 -49 -3 -183 6 -213 20 -66
59 -119 104 -141 24 -12 56 -21 71 -21 27 0 28 1 14 23 -56 85 -58 230 -7 459
10 48 19 90 19 92 0 2 20 9 44 15 100 25 188 147 190 264 0 48 -4 61 -24 81
-14 13 -35 27 -47 31 -19 5 -23 2 -24 -17 -6 -142 -35 -245 -80 -287 -48 -45
-48 -38 13 164 52 168 97 343 100 384 3 36 26 58 108 103 126 69 326 97 426
60 50 -18 134 -85 134 -107 0 -7 -19 -32 -41 -56 -115 -122 -186 -289 -178
-417 4 -52 4 -52 -34 -67 -20 -8 -48 -15 -62 -15 -21 0 -23 -3 -16 -22 6 -16
22 -26 56 -34 90 -23 129 -86 128 -205 -2 -156 -84 -338 -173 -384 -82 -42
-108 53 -41 154 16 24 45 60 65 82 l37 38 -26 7 c-33 8 -65 -14 -105 -71 -100
-145 -69 -290 59 -270 97 15 235 123 294 229 36 65 59 146 59 207 -1 48 -30
130 -51 143 -21 13 -11 25 31 36 57 16 147 108 171 175 21 61 22 120 2 158
-13 25 -12 33 6 80 27 68 27 152 0 213 -12 26 -21 50 -21 54 0 14 146 72 215
85 32 6 150 7 175 2 67 -14 90 -23 122 -46 78 -54 99 -163 57 -295 -49 -162
-154 -275 -279 -301 -19 -4 -38 -9 -43 -12 -4 -2 15 -25 41 -51 61 -60 83
-128 112 -351 23 -180 42 -240 94 -290 52 -51 167 -49 201 3 11 17 28 25 61
29 68 7 165 60 229 125 56 57 136 169 191 269 l29 53 80 1 c147 1 227 0 231
-4 2 -2 -2 -35 -10 -73 -29 -154 -16 -294 35 -369 26 -37 93 -75 134 -75 30 0
30 0 6 42 -21 35 -37 112 -35 163 3 90 17 192 39 290 14 60 25 110 25 111 0 1
24 16 54 32 52 30 101 82 123 132 25 58 30 77 29 122 -1 38 -7 53 -31 78 -16
16 -35 30 -42 30 -17 0 -17 2 8 97 11 45 23 110 27 144 l7 63 55 28 c92 45
172 61 281 56 118 -6 179 -32 223 -94 50 -73 41 -204 -24 -336 -55 -111 -141
-188 -236 -209 -57 -13 -64 -20 -39 -41 84 -70 106 -128 136 -353 30 -232 55
-297 127 -334 61 -31 132 -20 175 27 18 20 18 20 -5 27 -68 21 -97 82 -134
282 -14 81 -36 172 -47 202 -20 56 -89 141 -113 141 -8 0 -14 5 -14 11 0 5 4
8 8 5 5 -3 49 15 98 39 191 93 287 255 249 420 -28 123 -147 227 -285 251 -14
3 -32 7 -40 10 -7 3 -55 5 -105 5 -95 0 -203 -24 -276 -61 -49 -26 -50 -25
-74 9 -48 73 -147 68 -232 -10 -86 -80 -143 -180 -352 -624 -39 -82 -75 -157
-79 -165 -7 -11 -27 -15 -81 -15 -39 0 -72 -3 -72 -7 -7 -42 -5 -43 58 -43
l62 0 -31 -55 c-88 -158 -190 -275 -276 -319 -53 -27 -147 -37 -195 -22 -30
10 -38 19 -51 59 -23 73 -38 160 -31 181 19 60 136 133 245 153 33 6 60 17 60
23 0 6 -11 22 -24 35 -20 18 -36 23 -78 22 -71 0 -119 -22 -178 -83 l-49 -50
-11 43 c-7 23 -21 61 -32 83 -21 40 -81 105 -99 105 -5 0 -9 5 -9 10 0 6 8 10
17 10 9 0 50 16 91 36 88 43 178 128 219 206 23 46 27 65 27 138 0 68 -4 94
-23 132 -83 170 -300 246 -551 194 -40 -9 -104 -31 -142 -50 l-69 -35 -46 29
c-129 82 -361 95 -545 31 -66 -23 -167 -71 -174 -82 -11 -18 -21 -8 -32 29
-23 75 -85 108 -163 86z m20 -81 c6 -12 4 -45 -4 -93 -17 -93 -21 -106 -56
-151 -108 -139 -165 -343 -119 -428 7 -15 7 -33 0 -64 l-11 -43 -147 1 c-91 0
-146 4 -145 10 1 9 72 159 195 415 135 280 250 421 287 353z m2703 5 c4 -12 4
-31 -1 -90 0 -9 -22 -41 -48 -71 -143 -163 -204 -376 -144 -500 19 -39 21 -51
12 -84 l-11 -39 -145 0 c-80 0 -145 4 -145 8 0 23 265 563 316 644 67 108 151
175 166 132z m-1850 -195 c6 -54 -9 -117 -47 -198 -32 -67 -126 -185 -147
-185 -29 0 17 190 66 272 27 46 108 147 117 148 4 0 9 -17 11 -37z m1760 -225
c-58 -202 -59 -205 -67 -196 -23 23 -2 171 36 253 21 47 76 135 83 135 2 0
-21 -87 -52 -192z m-2722 -67 c-27 -96 -49 -149 -36 -91 2 14 8 43 11 64 6 38
45 139 52 133 1 -2 -11 -50 -27 -106z m2915 54 c5 -82 -29 -188 -74 -229 l-21
-19 15 49 c8 27 27 93 42 146 15 53 29 95 31 93 2 -2 5 -20 7 -40z m-1890 -77
c-9 -58 -50 -143 -79 -161 -38 -25 -90 -31 -124 -13 -46 24 -47 43 -2 66 53
27 117 71 165 114 22 19 42 35 43 36 2 0 1 -19 -3 -42z m-295 -158 c0 -5 -2
-10 -4 -10 -3 0 -8 5 -11 10 -3 6 -1 10 4 10 6 0 11 -4 11 -10z"/>
<path d="M1840 3047 c-101 -31 -210 -211 -270 -445 -19 -74 -22 -90 -35 -176
-4 -21 -9 -48 -11 -60 -3 -11 -7 -84 -9 -161 -5 -147 5 -215 39 -267 16 -25
44 -43 53 -34 2 2 6 37 8 77 19 334 149 768 300 1005 24 37 31 56 23 58 -37
12 -67 12 -98 3z"/>
<path d="M2616 3049 c-123 -33 -232 -214 -295 -489 -19 -86 -24 -114 -37 -227
-26 -237 8 -423 78 -423 15 0 18 8 19 53 1 28 2 63 4 77 1 14 5 54 9 88 28
273 151 644 281 847 19 30 35 59 35 64 0 12 -62 18 -94 10z"/>
<path d="M4501 3047 c-90 -18 -195 -159 -255 -342 -56 -173 -81 -337 -81 -545
0 -157 15 -214 65 -243 17 -10 30 -15 31 -10 0 4 3 44 5 88 19 336 150 770
295 981 15 23 29 47 31 54 4 19 -41 27 -91 17z"/>
</g>
</svg>
